<svg width="16" height="16" viewBox="0 0 16 16" fill="none" xmlns="http://www.w3.org/2000/svg">
  <path d="M4.32 2.688C4.32 2.464 4.352 2.28 4.416 2.136C4.48 1.992 4.564 1.88 4.668 1.8C4.772 1.712 4.888 1.652 5.016 1.62C5.144 1.588 5.272 1.572 5.4 1.572C5.528 1.572 5.656 1.588 5.784 1.62C5.912 1.652 6.028 1.712 6.132 1.8C6.236 1.88 6.32 1.992 6.384 2.136C6.448 2.28 6.48 2.464 6.48 2.688C6.48 2.912 6.444 3.096 6.372 3.24C6.308 3.384 6.224 3.5 6.12 3.588C6.016 3.668 5.9 3.728 5.772 3.768C5.644 3.8 5.52 3.816 5.4 3.816C5.272 3.816 5.144 3.8 5.016 3.768C4.888 3.728 4.772 3.668 4.668 3.588C4.564 3.5 4.48 3.384 4.416 3.24C4.352 3.096 4.32 2.912 4.32 2.688ZM2.304 11.304C2.304 11.12 2.328 10.96 2.376 10.824C2.432 10.688 2.504 10.576 2.592 10.488C2.688 10.392 2.8 10.32 2.928 10.272C3.056 10.224 3.192 10.2 3.336 10.2C3.48 10.2 3.616 10.224 3.744 10.272C3.872 10.32 3.98 10.392 4.068 10.488C4.164 10.576 4.236 10.688 4.284 10.824C4.34 10.96 4.368 11.12 4.368 11.304C4.368 11.488 4.344 11.648 4.296 11.784C4.248 11.92 4.176 12.036 4.08 12.132C3.992 12.22 3.884 12.288 3.756 12.336C3.628 12.384 3.488 12.408 3.336 12.408C3.184 12.408 3.044 12.384 2.916 12.336C2.788 12.288 2.676 12.22 2.58 12.132C2.492 12.036 2.424 11.92 2.376 11.784C2.328 11.648 2.304 11.488 2.304 11.304ZM3.624 5.868H7.272L6.984 8.04H3.816L3.624 5.868ZM13.416 11.304C13.416 11.12 13.44 10.96 13.488 10.824C13.544 10.688 13.62 10.576 13.716 10.488C13.812 10.392 13.924 10.32 14.052 10.272C14.18 10.224 14.316 10.2 14.46 10.2C14.604 10.2 14.74 10.224 14.868 10.272C14.996 10.32 15.104 10.392 15.192 10.488C15.288 10.576 15.36 10.688 15.408 10.824C15.464 10.96 15.492 11.12 15.492 11.304C15.492 11.488 15.468 11.648 15.42 11.784C15.372 11.92 15.3 12.036 15.204 12.132C15.116 12.22 15.008 12.288 14.88 12.336C14.752 12.384 14.612 12.408 14.46 12.408C14.308 12.408 14.168 12.384 14.04 12.336C13.912 12.288 13.8 12.22 13.704 12.132C13.616 12.036 13.548 11.92 13.5 11.784C13.452 11.648 13.428 11.488 13.416 11.304ZM12.588 5.268C12.812 5.268 13.008 5.312 13.176 5.4C13.344 5.488 13.484 5.608 13.596 5.76C13.708 5.904 13.792 6.076 13.848 6.276C13.904 6.468 13.932 6.672 13.932 6.888C13.932 7.216 13.896 7.564 13.824 7.932C13.76 8.292 13.664 8.652 13.536 9.012C13.416 9.372 13.268 9.72 13.092 10.056C12.916 10.392 12.72 10.7 12.504 10.98C12.288 11.252 12.052 11.48 11.796 11.664C11.548 11.848 11.288 11.976 11.016 12.048C10.968 12.248 10.916 12.456 10.86 12.672C10.804 12.888 10.736 13.096 10.656 13.296C10.584 13.496 10.496 13.684 10.392 13.86C10.296 14.036 10.18 14.18 10.044 14.292C9.908 14.404 9.752 14.492 9.576 14.556C9.4 14.628 9.196 14.664 8.964 14.664C8.62 14.664 8.344 14.604 8.136 14.484C7.936 14.364 7.784 14.204 7.68 14.004C7.584 13.804 7.528 13.576 7.512 13.32C7.496 13.072 7.508 12.816 7.548 12.552C7.372 12.48 7.212 12.376 7.068 12.24C6.924 12.104 6.808 11.948 6.72 11.772C6.632 11.588 6.572 11.392 6.54 11.184C6.508 10.976 6.508 10.76 6.54 10.536C6.564 10.36 6.6 10.184 6.648 10.008C6.696 9.832 6.752 9.664 6.816 9.504C6.888 9.336 6.96 9.18 7.032 9.036C7.112 8.884 7.192 8.752 7.272 8.64L7.536 8.04H7.02C6.756 8.04 6.536 8.004 6.36 7.932C6.184 7.86 6.044 7.764 5.94 7.644C5.836 7.524 5.764 7.38 5.724 7.212C5.684 7.044 5.664 6.864 5.664 6.672C5.664 6.552 5.672 6.436 5.688 6.324C5.704 6.212 5.724 6.108 5.748 6.012C5.78 5.916 5.816 5.832 5.856 5.76C5.896 5.688 5.94 5.636 5.988 5.604L6.096 5.532C5.992 5.468 5.908 5.388 5.844 5.292C5.78 5.196 5.732 5.092 5.7 4.98C5.676 4.868 5.66 4.752 5.652 4.632C5.652 4.512 5.656 4.392 5.664 4.272C5.68 4.088 5.712 3.924 5.76 3.78C5.808 3.636 5.876 3.516 5.964 3.42C6.06 3.316 6.18 3.236 6.324 3.18C6.476 3.124 6.656 3.096 6.864 3.096H11.016C11.2 3.096 11.36 3.12 11.496 3.168C11.64 3.216 11.76 3.288 11.856 3.384C11.96 3.472 12.04 3.584 12.096 3.72C12.152 3.848 12.192 3.992 12.216 4.152C12.24 4.312 12.248 4.484 12.24 4.668C12.232 4.844 12.216 5.024 12.192 5.208C12.192 5.208 12.192 5.224 12.192 5.256C12.192 5.28 12.192 5.292 12.192 5.292C12.352 5.292 12.476 5.28 12.588 5.268ZM9.864 8.64L8.796 12.048H9.9C10.124 12.048 10.328 12.008 10.512 11.928C10.704 11.84 10.876 11.716 11.028 11.556C11.188 11.388 11.328 11.192 11.448 10.968C11.576 10.736 11.684 10.48 11.772 10.2C11.868 9.92 11.944 9.628 12 9.324C12.056 9.02 12.092 8.716 12.108 8.412C12.14 8.412 12.164 8.412 12.18 8.412C12.196 8.404 12.212 8.404 12.228 8.412C12.228 8.412 12.192 8.136 12.12 7.584C12.048 7.024 11.94 6.516 11.796 6.06C11.764 5.972 11.732 5.896 11.7 5.832C11.676 5.768 11.644 5.72 11.604 5.688C11.572 5.648 11.536 5.62 11.496 5.604C11.456 5.588 11.4 5.58 11.328 5.58H6.276C6.196 5.58 6.14 5.592 6.108 5.616C6.084 5.64 6.068 5.668 6.06 5.7C6.06 5.732 6.056 5.768 6.048 5.808C6.04 5.84 6.032 5.876 6.024 5.916L9.864 8.64Z" fill="#000000"/>
</svg> 